<svg width="44" height="44" viewBox="0 0 44 44" fill="none" xmlns="http://www.w3.org/2000/svg">
<path d="M32.395 34C29.867 34 27.275 33.367 24.619 32.101C21.963 30.835 19.4955 29.0575 17.2165 26.7685C14.9375 24.4795 13.165 22.012 11.899 19.366C10.633 16.72 10 14.133 10 11.605C10 11.147 10.15 10.7655 10.45 10.4605C10.75 10.1555 11.125 10.002 11.575 10H15.2845C15.6925 10 16.0485 10.1285 16.3525 10.3855C16.6565 10.6425 16.862 10.972 16.969 11.374L17.713 14.95C17.783 15.37 17.7705 15.7365 17.6755 16.0495C17.5805 16.3625 17.414 16.619 17.176 16.819L13.885 19.888C14.501 21.005 15.1815 22.043 15.9265 23.002C16.6715 23.961 17.4665 24.8695 18.3115 25.7275C19.1815 26.5975 20.1185 27.4075 21.1225 28.1575C22.1265 28.9065 23.2285 29.6135 24.4285 30.2785L27.637 27.013C27.881 26.75 28.1555 26.5765 28.4605 26.4925C28.7645 26.4095 29.1015 26.393 29.4715 26.443L32.626 27.088C33.034 27.188 33.365 27.3935 33.619 27.7045C33.873 28.0155 34 28.3715 34 28.7725V32.425C34 32.875 33.847 33.25 33.541 33.55C33.235 33.85 32.852 34 32.395 34ZM13.18 18.481L16.06 15.8335C16.155 15.7565 16.217 15.6505 16.246 15.5155C16.276 15.3805 16.271 15.2555 16.231 15.1405L15.5665 11.9605C15.5275 11.8075 15.46 11.6925 15.364 11.6155C15.268 11.5385 15.1435 11.5 14.9905 11.5H11.9125C11.7975 11.5 11.7015 11.5385 11.6245 11.6155C11.5475 11.6925 11.509 11.7885 11.509 11.9035C11.538 12.9285 11.6985 13.9985 11.9905 15.1135C12.2825 16.2285 12.678 17.351 13.18 18.481ZM25.8565 30.982C26.8705 31.484 27.9505 31.8555 29.0965 32.0965C30.2445 32.3365 31.2445 32.465 32.0965 32.482C32.2115 32.482 32.3075 32.4435 32.3845 32.3665C32.4615 32.2895 32.5 32.194 32.5 32.08V29.068C32.5 28.915 32.4615 28.79 32.3845 28.693C32.3075 28.597 32.1925 28.53 32.0395 28.492L29.2645 27.9235C29.1485 27.8845 29.047 27.8795 28.96 27.9085C28.874 27.9385 28.783 28.001 28.687 28.096L25.8565 30.982Z" fill="white"/>
</svg>
