<svg width="23" height="23" viewBox="0 0 23 23" fill="none" xmlns="http://www.w3.org/2000/svg">
<path d="M11.363 0C5.0322 0 0 5.0322 0 11.363C0 17.6939 5.0322 22.7261 11.363 22.7261C17.6939 22.7261 22.7261 17.6939 22.7261 11.363C22.7261 5.0322 17.6939 0 11.363 0ZM11.363 21.1028C6.00617 21.1028 1.62329 16.7199 1.62329 11.363C1.62329 6.00617 6.00617 1.62329 11.363 1.62329C16.7199 1.62329 21.1028 6.00617 21.1028 11.363C21.1028 16.7199 16.7199 21.1028 11.363 21.1028Z" fill="#6E6E6E"/>
<path d="M15.746 17.0445L11.3632 12.6617L6.98027 17.0445L5.68164 15.7459L10.0645 11.363L5.68164 6.98015L6.98027 5.68152L11.3632 10.0644L15.746 5.68152L17.0447 6.98015L12.6618 11.363L17.0447 15.7459L15.746 17.0445Z" fill="#6E6E6E"/>
</svg>
