<svg width="21" height="21" viewBox="0 0 21 21" fill="none" xmlns="http://www.w3.org/2000/svg">
<path d="M5.9761 0H14.6311C17.9283 0 20.6072 2.67894 20.6072 5.9761V14.6311C20.6072 16.2161 19.9776 17.7361 18.8569 18.8569C17.7361 19.9776 16.2161 20.6072 14.6311 20.6072H5.9761C2.67894 20.6072 0 17.9283 0 14.6311V5.9761C0 4.39114 0.629623 2.87109 1.75036 1.75036C2.87109 0.629623 4.39114 0 5.9761 0ZM5.77003 2.06072C4.78626 2.06072 3.84278 2.45152 3.14715 3.14715C2.45152 3.84278 2.06072 4.78626 2.06072 5.77003V14.8372C2.06072 16.8876 3.71961 18.5465 5.77003 18.5465H14.8372C15.821 18.5465 16.7645 18.1557 17.4601 17.4601C18.1557 16.7645 18.5465 15.821 18.5465 14.8372V5.77003C18.5465 3.71961 16.8876 2.06072 14.8372 2.06072H5.77003ZM15.713 3.60627C16.0546 3.60627 16.3822 3.74196 16.6237 3.9835C16.8653 4.22504 17.001 4.55263 17.001 4.89422C17.001 5.2358 16.8653 5.5634 16.6237 5.80494C16.3822 6.04648 16.0546 6.18217 15.713 6.18217C15.3714 6.18217 15.0438 6.04648 14.8023 5.80494C14.5608 5.5634 14.4251 5.2358 14.4251 4.89422C14.4251 4.55263 14.5608 4.22504 14.8023 3.9835C15.0438 3.74196 15.3714 3.60627 15.713 3.60627ZM10.3036 5.15181C11.67 5.15181 12.9803 5.69459 13.9465 6.66074C14.9126 7.62689 15.4554 8.93727 15.4554 10.3036C15.4554 11.67 14.9126 12.9803 13.9465 13.9465C12.9803 14.9126 11.67 15.4554 10.3036 15.4554C8.93727 15.4554 7.62689 14.9126 6.66074 13.9465C5.69459 12.9803 5.15181 11.67 5.15181 10.3036C5.15181 8.93727 5.69459 7.62689 6.66074 6.66074C7.62689 5.69459 8.93727 5.15181 10.3036 5.15181ZM10.3036 7.21253C9.48381 7.21253 8.69758 7.5382 8.11789 8.11789C7.5382 8.69758 7.21253 9.48381 7.21253 10.3036C7.21253 11.1234 7.5382 11.9097 8.11789 12.4893C8.69758 13.069 9.48381 13.3947 10.3036 13.3947C11.1234 13.3947 11.9097 13.069 12.4893 12.4893C13.069 11.9097 13.3947 11.1234 13.3947 10.3036C13.3947 9.48381 13.069 8.69758 12.4893 8.11789C11.9097 7.5382 11.1234 7.21253 10.3036 7.21253Z" fill="#274EA8"/>
</svg>
