<svg width="31" height="25" viewBox="0 0 31 25" fill="none" xmlns="http://www.w3.org/2000/svg">
<path d="M13.2814 24.8071C13.3441 24.746 13.3938 24.6734 13.4277 24.5935C13.4616 24.5137 13.4791 24.4281 13.4791 24.3416C13.4791 24.2552 13.4616 24.1696 13.4277 24.0897C13.3938 24.0098 13.3441 23.9373 13.2814 23.8762L2.3019 13.1578L30.3261 13.1578C30.5048 13.1578 30.6762 13.0885 30.8026 12.9651C30.929 12.8417 31 12.6744 31 12.4999C31 12.3254 30.929 12.1581 30.8026 12.0347C30.6762 11.9114 30.5048 11.8421 30.3261 11.8421L2.3019 11.8421L13.2814 1.12368C13.3441 1.06256 13.3937 0.989994 13.4276 0.910133C13.4615 0.830272 13.4789 0.744678 13.4789 0.658237C13.4789 0.571796 13.4615 0.486201 13.4276 0.40634C13.3937 0.326479 13.3441 0.253915 13.2814 0.192792C13.2188 0.131669 13.1445 0.083184 13.0627 0.0501045C12.9809 0.0170249 12.8932 -5.6358e-07 12.8047 -5.59709e-07C12.7161 -5.55839e-07 12.6284 0.017025 12.5466 0.0501045C12.4648 0.083184 12.3905 0.131669 12.3279 0.192792L0.197647 12.0345C0.13499 12.0956 0.0852838 12.1681 0.0513702 12.248C0.0174565 12.3279 5.4261e-07 12.4135 5.46389e-07 12.4999C5.50168e-07 12.5864 0.0174566 12.672 0.0513702 12.7519C0.0852838 12.8317 0.13499 12.9043 0.197647 12.9654L12.3279 24.8071C12.3905 24.8682 12.4648 24.9167 12.5466 24.9499C12.6284 24.983 12.7161 25 12.8047 25C12.8932 25 12.9809 24.983 13.0627 24.9499C13.1445 24.9167 13.2189 24.8682 13.2814 24.8071Z" fill="#FF6F00"/>
</svg>
