<svg width="21" height="20" viewBox="0 0 21 20" fill="none" xmlns="http://www.w3.org/2000/svg">
<path d="M20.565 12.048V19.6511H16.1571V12.557C16.1571 10.7745 15.5193 9.55867 13.9243 9.55867C12.7064 9.55867 11.981 10.3788 11.6627 11.1712C11.5462 11.4545 11.5164 11.8492 11.5164 12.2458V19.6511H7.1064C7.1064 19.6511 7.16617 7.63704 7.1064 6.39133H11.5164V8.27071L11.4875 8.31399H11.5164V8.27071C12.1016 7.36915 13.1474 6.08016 15.4894 6.08016C18.3899 6.08016 20.565 7.97603 20.565 12.048ZM2.49451 0C0.987087 0 0 0.989147 0 2.29049C0 3.56299 0.958237 4.58202 2.43681 4.58202H2.46566C4.00399 4.58202 4.95913 3.56299 4.95913 2.29049C4.93234 0.989147 4.00399 0 2.49451 0ZM0.261712 19.6511H4.6696V6.39133H0.261712V19.6511Z" fill="#274EA8"/>
</svg>
