<svg width="44" height="44" viewBox="0 0 44 44" fill="none" xmlns="http://www.w3.org/2000/svg">
<path d="M33.2255 10H10.7745C9.77347 10 8.8134 10.3983 8.10554 11.1073C7.39767 11.8164 7 12.778 7 13.7807V30.2193C7 31.222 7.39767 32.1836 8.10554 32.8927C8.8134 33.6017 9.77347 34 10.7745 34H33.2255C34.2265 34 35.1866 33.6017 35.8945 32.8927C36.6023 32.1836 37 31.222 37 30.2193V13.7807C37 12.778 36.6023 11.8164 35.8945 11.1073C35.1866 10.3983 34.2265 10 33.2255 10ZM10.7745 11.5123H33.2255C33.7968 11.511 34.3473 11.7275 34.7651 12.1179C35.1829 12.5083 35.4367 13.0433 35.4751 13.6144C31.7458 15.6106 28.0015 17.5917 24.2572 19.5879C23.7514 19.9073 23.2153 20.1758 22.6568 20.3894C22.2188 20.4763 21.7674 20.4686 21.3326 20.3669C20.8978 20.2652 20.4896 20.0718 20.1354 19.7996C17.9914 18.6654 15.8475 17.5161 13.7187 16.3819C11.9975 15.4745 10.2461 14.552 8.52491 13.6295C8.55957 13.0558 8.8118 12.517 9.22999 12.1234C9.64818 11.7299 10.2007 11.5112 10.7745 11.5123ZM35.4902 30.2193C35.4902 30.8209 35.2516 31.3979 34.8269 31.8233C34.4021 32.2487 33.8261 32.4877 33.2255 32.4877H10.7745C10.1739 32.4877 9.59785 32.2487 9.17314 31.8233C8.74842 31.3979 8.50981 30.8209 8.50981 30.2193V15.3459C12.073 17.2212 15.621 19.1267 19.1842 21.017C19.8206 21.4083 20.506 21.7134 21.2224 21.9244C22.2708 22.0954 23.3454 21.8748 24.2421 21.3043C26.4313 20.155 28.6054 18.9905 30.7947 17.8412C32.3649 16.9943 33.92 16.1777 35.4902 15.3459V30.2193Z" fill="white"/>
</svg>
