<svg width="31" height="25" viewBox="0 0 31 25" fill="none" xmlns="http://www.w3.org/2000/svg">
<path d="M17.7186 24.8071C17.6559 24.746 17.6062 24.6734 17.5723 24.5935C17.5384 24.5137 17.5209 24.4281 17.5209 24.3416C17.5209 24.2552 17.5384 24.1696 17.5723 24.0897C17.6062 24.0098 17.6559 23.9373 17.7186 23.8762L28.6981 13.1578L0.673902 13.1578C0.495172 13.1578 0.323762 13.0885 0.197381 12.9651C0.0710005 12.8417 1.35333e-06 12.6744 1.36096e-06 12.4999C1.36859e-06 12.3254 0.0710005 12.1581 0.197381 12.0347C0.323762 11.9114 0.495172 11.8421 0.673902 11.8421L28.6981 11.8421L17.7186 1.12368C17.6559 1.06256 17.6063 0.989994 17.5724 0.910133C17.5385 0.830272 17.5211 0.744678 17.5211 0.658237C17.5211 0.571796 17.5385 0.486201 17.5724 0.40634C17.6063 0.326479 17.6559 0.253915 17.7186 0.192792C17.7812 0.131669 17.8555 0.083184 17.9373 0.0501045C18.0191 0.0170249 18.1068 -5.6358e-07 18.1953 -5.59709e-07C18.2839 -5.55839e-07 18.3716 0.017025 18.4534 0.0501045C18.5352 0.083184 18.6095 0.131669 18.6721 0.192792L30.8024 12.0345C30.865 12.0956 30.9147 12.1681 30.9486 12.248C30.9825 12.3279 31 12.4135 31 12.4999C31 12.5864 30.9825 12.672 30.9486 12.7519C30.9147 12.8317 30.865 12.9043 30.8024 12.9654L18.6721 24.8071C18.6095 24.8682 18.5352 24.9167 18.4534 24.9499C18.3716 24.983 18.2839 25 18.1953 25C18.1068 25 18.0191 24.983 17.9373 24.9499C17.8555 24.9167 17.7811 24.8682 17.7186 24.8071Z" fill="#FF6F00"/>
</svg>
