<svg width="40" height="29" viewBox="0 0 40 29" fill="none" xmlns="http://www.w3.org/2000/svg">
<path d="M10.5909 8.72223L19.6818 15.0417L28.7727 8.72223" stroke="#80B918" stroke-width="3" stroke-linecap="round" stroke-linejoin="round"/>
<path d="M1.5 23.1667V5.11111C1.5 4.15338 1.88312 3.23488 2.56507 2.55767C3.24702 1.88046 4.17194 1.5 5.13636 1.5H34.2273C35.1917 1.5 36.1166 1.88046 36.7986 2.55767C37.4805 3.23488 37.8636 4.15338 37.8636 5.11111V23.1667C37.8636 24.1244 37.4805 25.0429 36.7986 25.7201C36.1166 26.3973 35.1917 26.7778 34.2273 26.7778H5.13636C4.17194 26.7778 3.24702 26.3973 2.56507 25.7201C1.88312 25.0429 1.5 24.1244 1.5 23.1667Z" stroke="#80B918" stroke-width="3"/>
</svg>
