<svg width="70" height="70" viewBox="0 0 70 70" fill="none" xmlns="http://www.w3.org/2000/svg">
<rect width="70" height="70" rx="5" fill="white"/>
<g clip-path="url(#clip0_717_1007)">
<mask id="mask0_717_1007" style="mask-type:luminance" maskUnits="userSpaceOnUse" x="10" y="10" width="51" height="51">
<path d="M10 10H61V61H10V10Z" fill="white"/>
</mask>
<g mask="url(#mask0_717_1007)">
<path d="M39.7763 13.6581L38.8835 20.7911C38.8038 21.4271 38.247 21.8908 37.6067 21.8598C27.2129 21.3548 19.4493 31.3344 22.5189 41.2898C22.7066 41.8989 22.3894 42.549 21.7962 42.782L15.1047 45.4107C18.5184 54.0938 26.9774 60.2404 36.8721 60.2404C49.7849 60.2404 60.2529 49.7724 60.2529 36.8595C60.2529 24.9302 51.3185 15.0882 39.7763 13.6581Z" stroke="#0096C7" stroke-width="1.5" stroke-miterlimit="10" stroke-linecap="round" stroke-linejoin="round"/>
<path d="M38.3204 36.8595C38.3204 37.6594 37.6719 38.3079 36.872 38.3079C36.0723 38.3079 35.4238 37.6594 35.4238 36.8595C35.4238 36.0597 36.0723 35.4112 36.872 35.4112C37.6719 35.4112 38.3204 36.0597 38.3204 36.8595Z" stroke="#0096C7" stroke-width="1.5" stroke-miterlimit="10" stroke-linecap="round" stroke-linejoin="round"/>
<path d="M38.8298 10.8348C20.2136 9.44647 6.17777 27.5086 12.1338 45.1936C12.3576 45.858 13.0896 46.2023 13.7422 45.946L21.7962 42.782C22.3894 42.549 22.7067 41.8988 22.5189 41.2898C19.4493 31.3344 27.2129 21.3549 37.6067 21.8598C38.247 21.8909 38.8038 21.4271 38.8835 20.7911L39.9579 12.2073C40.0451 11.511 39.5296 10.887 38.8298 10.8348Z" stroke="#0096C7" stroke-width="1.5" stroke-miterlimit="10" stroke-linecap="round" stroke-linejoin="round"/>
<path d="M36.0576 46.828L37.6865 45.7955" stroke="#0096C7" stroke-width="1.5" stroke-miterlimit="10" stroke-linecap="round" stroke-linejoin="round"/>
<path d="M36.0576 50.4178L37.6865 49.3853" stroke="#0096C7" stroke-width="1.5" stroke-miterlimit="10" stroke-linecap="round" stroke-linejoin="round"/>
<path d="M36.0576 54.0076L37.6865 52.975" stroke="#0096C7" stroke-width="1.5" stroke-miterlimit="10" stroke-linecap="round" stroke-linejoin="round"/>
<path d="M36.0576 24.3337L37.6865 23.3012" stroke="#0096C7" stroke-width="1.5" stroke-miterlimit="10" stroke-linecap="round" stroke-linejoin="round"/>
<path d="M36.0576 27.9236L37.6865 26.891" stroke="#0096C7" stroke-width="1.5" stroke-miterlimit="10" stroke-linecap="round" stroke-linejoin="round"/>
<path d="M45.0979 42.5491L45.0181 40.6221" stroke="#0096C7" stroke-width="1.5" stroke-miterlimit="10" stroke-linecap="round" stroke-linejoin="round"/>
<path d="M48.2067 44.344L48.127 42.4171" stroke="#0096C7" stroke-width="1.5" stroke-miterlimit="10" stroke-linecap="round" stroke-linejoin="round"/>
<path d="M51.3155 46.1389L51.2358 44.212" stroke="#0096C7" stroke-width="1.5" stroke-miterlimit="10" stroke-linecap="round" stroke-linejoin="round"/>
<path d="M25.6173 31.302L25.5376 29.3751" stroke="#0096C7" stroke-width="1.5" stroke-miterlimit="10" stroke-linecap="round" stroke-linejoin="round"/>
<path d="M28.726 33.0969L28.6462 31.17" stroke="#0096C7" stroke-width="1.5" stroke-miterlimit="10" stroke-linecap="round" stroke-linejoin="round"/>
<path d="M45.9122 32.5806L44.2036 31.6862" stroke="#0096C7" stroke-width="1.5" stroke-miterlimit="10" stroke-linecap="round" stroke-linejoin="round"/>
<path d="M49.0211 30.7856L47.3125 29.8913" stroke="#0096C7" stroke-width="1.5" stroke-miterlimit="10" stroke-linecap="round" stroke-linejoin="round"/>
<path d="M52.1301 28.9908L50.4214 28.0965" stroke="#0096C7" stroke-width="1.5" stroke-miterlimit="10" stroke-linecap="round" stroke-linejoin="round"/>
<path d="M23.323 45.6227L21.6143 44.7283" stroke="#0096C7" stroke-width="1.5" stroke-miterlimit="10" stroke-linecap="round" stroke-linejoin="round"/>
<path d="M26.4316 43.8278L24.7229 42.9334" stroke="#0096C7" stroke-width="1.5" stroke-miterlimit="10" stroke-linecap="round" stroke-linejoin="round"/>
<path d="M29.5406 42.0328L27.832 41.1384" stroke="#0096C7" stroke-width="1.5" stroke-miterlimit="10" stroke-linecap="round" stroke-linejoin="round"/>
<path d="M30.5982 17.3407C30.5982 18.3966 29.7423 19.2526 28.6863 19.2526C27.6305 19.2526 26.7744 18.3966 26.7744 17.3407C26.7744 16.2847 27.6305 15.4288 28.6863 15.4288C29.7423 15.4288 30.5982 16.2847 30.5982 17.3407Z" stroke="#0096C7" stroke-width="1.5" stroke-miterlimit="10" stroke-linecap="round" stroke-linejoin="round"/>
<path d="M17.671 36.3958C17.671 37.4518 16.8149 38.3077 15.7591 38.3077C14.7031 38.3077 13.8472 37.4518 13.8472 36.3958C13.8472 35.3399 14.7031 34.4839 15.7591 34.4839C16.8149 34.4839 17.671 35.3399 17.671 36.3958Z" stroke="#0096C7" stroke-width="1.5" stroke-miterlimit="10" stroke-linecap="round" stroke-linejoin="round"/>
<path d="M21.1556 25.4021C21.1556 26.458 20.2995 27.314 19.2437 27.314C18.1877 27.314 17.3318 26.458 17.3318 25.4021C17.3318 24.3461 18.1877 23.4902 19.2437 23.4902C20.2995 23.4902 21.1556 24.3461 21.1556 25.4021Z" stroke="#0096C7" stroke-width="1.5" stroke-miterlimit="10" stroke-linecap="round" stroke-linejoin="round"/>
<path d="M38.8298 10.8348C20.2136 9.44647 6.17777 27.5086 12.1338 45.1936C12.3576 45.858 13.0896 46.2023 13.7422 45.946L17.373 44.5196C17.1412 44.4049 16.9522 44.2019 16.8627 43.9358C16.2286 42.0531 15.8719 40.1655 15.7607 38.3077C15.7602 38.3077 15.7597 38.3078 15.7591 38.3078C14.7032 38.3078 13.8472 37.4517 13.8472 36.3959C13.8472 35.3399 14.7032 34.484 15.7591 34.484C15.7989 34.484 15.8377 34.4876 15.8769 34.49C16.2001 31.8472 17.0178 29.3229 18.2412 27.0278C17.6961 26.691 17.3317 26.0899 17.3317 25.4021C17.3317 24.3462 18.1878 23.4902 19.2436 23.4902C19.6458 23.4902 20.0184 23.615 20.3263 23.827C22.1241 21.5343 24.3804 19.6008 26.9722 18.1839C26.8467 17.9293 26.7743 17.6437 26.7743 17.3406C26.7743 16.2848 27.6303 15.4288 28.6863 15.4288C29.5031 15.4288 30.1984 15.9419 30.4722 16.6628C33.0607 15.8055 35.8806 15.4262 38.8424 15.6472C39.0983 15.6662 39.3239 15.7785 39.4897 15.9474L39.9579 12.2073C40.0451 11.511 39.5296 10.887 38.8298 10.8348Z" stroke="#0096C7" stroke-width="1.5" stroke-miterlimit="10" stroke-linecap="round" stroke-linejoin="round"/>
<path d="M35.129 31.4817C32.8603 32.2166 31.2192 34.3459 31.2192 36.8595C31.2192 39.9816 33.7501 42.5125 36.8722 42.5125C39.9942 42.5125 42.5251 39.9816 42.5251 36.8595C42.5251 34.3459 40.884 32.2166 38.6153 31.4817" stroke="#0096C7" stroke-width="1.5" stroke-miterlimit="10" stroke-linecap="round" stroke-linejoin="round"/>
<path d="M57.1647 35.206C56.3904 25.5741 48.9134 17.8344 39.4011 16.6557L38.8835 20.7911C38.8039 21.4271 38.2471 21.8909 37.6068 21.8598C27.2128 21.3549 19.4493 31.3344 22.5189 41.2898C22.7067 41.8988 22.3895 42.5489 21.7962 42.782L17.917 44.3059C20.8898 51.8672 28.2557 57.2196 36.8722 57.2196C47.4988 57.2196 56.2224 49.0779 57.1492 38.6924" stroke="#0096C7" stroke-width="1.5" stroke-miterlimit="10" stroke-linecap="round" stroke-linejoin="round"/>
</g>
</g>
<defs>
<clipPath id="clip0_717_1007">
<rect width="51" height="51" fill="white" transform="translate(10 10)"/>
</clipPath>
</defs>
</svg>
